<svg xmlns="http://www.w3.org/2000/svg" viewBox="0 0 32 32">
  <style>
    .ink { fill: #111110; }
    @media (prefers-color-scheme: dark) {
      .ink { fill: #f2efe8; }
    }
  </style>
  <g class="ink">
<g transform="matrix(0.0232 0 0 -0.0232 9.2139 24.1989)"><path d="M219 214Q219 247 222.5 285.0Q226 323 237.0 355.0Q248 387 270.0 408.0Q292 429 329 429Q355 429 372.0 418.0Q389 407 400.0 382.0Q411 357 415.5 315.5Q420 274 420 214Q420 165 417.5 125.5Q415 86 406.5 58.0Q398 30 381.5 15.0Q365 0 337 0Q295 0 271.5 21.5Q248 43 236.0 75.5Q224 108 221.5 145.5Q219 183 219 214ZM97 707V14H31V0H217V74H219Q235 32 263.5 9.5Q292 -13 337 -13Q386 -13 426.0 6.0Q466 25 494.5 56.5Q523 88 539.0 129.0Q555 170 555 215Q555 250 542.5 290.0Q530 330 503.5 364.0Q477 398 436.0 420.5Q395 443 337 443Q292 443 264.0 422.0Q236 401 221 359H219V721H31V707Z"/></g>
  </g>
</svg>
